<svg xmlns="http://www.w3.org/2000/svg" xmlns:xlink="http://www.w3.org/1999/xlink" width="165.899" height="95.5" viewBox="0 0 165.899 95.5">
  <defs>
    <linearGradient id="linear-gradient" x1="0.5" y1="0.986" x2="0.5" y2="0.378" gradientUnits="objectBoundingBox">
      <stop offset="0" stop-color="#fff"/>
      <stop offset="1" stop-color="#939598"/>
    </linearGradient>
    <linearGradient id="linear-gradient-2" x1="0.499" y1="0.986" x2="0.499" y2="0.378" xlink:href="#linear-gradient"/>
    <linearGradient id="linear-gradient-3" x1="0.496" y1="0.986" x2="0.496" y2="0.378" xlink:href="#linear-gradient"/>
    <linearGradient id="linear-gradient-4" x1="0.498" y1="0.989" x2="0.498" y2="0.379" xlink:href="#linear-gradient"/>
    <linearGradient id="linear-gradient-6" x1="0.497" y1="0.986" x2="0.497" y2="0.378" xlink:href="#linear-gradient"/>
    <linearGradient id="linear-gradient-7" x1="0.5" y1="0.986" x2="0.5" y2="0.376" xlink:href="#linear-gradient"/>
    <linearGradient id="linear-gradient-8" x1="0.496" y1="0.986" x2="0.496" y2="0.378" xlink:href="#linear-gradient"/>
    <linearGradient id="linear-gradient-9" x1="0.501" y1="0.982" x2="0.501" y2="0.377" xlink:href="#linear-gradient"/>
    <linearGradient id="linear-gradient-10" x1="0.5" y1="0.986" x2="0.5" y2="0.378" xlink:href="#linear-gradient"/>
    <linearGradient id="linear-gradient-11" x1="0.5" y1="0.986" x2="0.5" y2="0.378" xlink:href="#linear-gradient"/>
    <linearGradient id="linear-gradient-12" x1="0.446" y1="0.188" x2="1.018" y2="0.867" xlink:href="#linear-gradient"/>
    <linearGradient id="linear-gradient-13" x1="0" y1="0.499" x2="0.999" y2="0.499" xlink:href="#linear-gradient"/>
    <linearGradient id="linear-gradient-14" x1="0.009" y1="0.282" x2="0.78" y2="0.876" gradientUnits="objectBoundingBox">
      <stop offset="0" stop-color="#fff"/>
      <stop offset="1" stop-color="#808285"/>
    </linearGradient>
    <linearGradient id="linear-gradient-15" x1="0.599" y1="-0.05" x2="0.331" y2="0.799" xlink:href="#linear-gradient"/>
    <linearGradient id="linear-gradient-16" x1="0.503" y1="0.526" x2="0.503" y2="2.242" gradientUnits="objectBoundingBox">
      <stop offset="0" stop-color="#f29803"/>
      <stop offset="1" stop-color="#e22c16"/>
    </linearGradient>
    <linearGradient id="linear-gradient-17" x1="0.526" y1="0.667" x2="0.719" y2="0.303" xlink:href="#linear-gradient"/>
    <linearGradient id="linear-gradient-18" x1="0.006" y1="0.05" x2="0.594" y2="0.871" gradientUnits="objectBoundingBox">
      <stop offset="0" stop-color="#6d6e71"/>
      <stop offset="1" stop-color="#fff"/>
    </linearGradient>
    <linearGradient id="linear-gradient-19" x1="0.952" y1="0.071" x2="0.373" y2="0.628" xlink:href="#linear-gradient"/>
    <linearGradient id="linear-gradient-20" x1="0.308" y1="0.023" x2="0.926" y2="0.674" xlink:href="#linear-gradient-14"/>
    <linearGradient id="linear-gradient-21" x1="0.502" y1="0.055" x2="0.502" y2="0.473" xlink:href="#linear-gradient"/>
  </defs>
  <g id="fx-bull-bear" transform="translate(0 -0.2)">
    <g id="Group_3096" data-name="Group 3096" transform="translate(0 86.603)">
      <g id="Group_3094" data-name="Group 3094">
        <path id="Path_15274" data-name="Path 15274" d="M3.947,280.4H15.634a4.5,4.5,0,0,1-.463.617c-.216.247-.463.524-.709.771a6.947,6.947,0,0,1-.74.648,1.2,1.2,0,0,1-.524.278H6.876L5.7,285.4l1.943-1.573H12.4l-2.929,2.313h-4.1l-1.449,3.33H0Z" transform="translate(0 -280.4)" fill="url(#linear-gradient)"/>
        <path id="Path_15275" data-name="Path 15275" d="M45.048,289.466H40.7l6.167-4.564-2.22-4.5h4.41l1.018,2.128L53,280.4h4.379l-6.136,4.5,2.189,4.564H49.057l-1.048-2.159Z" transform="translate(-28.15 -280.4)" fill="url(#linear-gradient-2)"/>
        <path id="Path_15276" data-name="Path 15276" d="M106.885,280.4h9.436a2.07,2.07,0,0,1,1.018.216,1.928,1.928,0,0,1,.648.555,2.1,2.1,0,0,1,.339.8,4.788,4.788,0,0,1,.093.956v.031a1.406,1.406,0,0,1-.185.678,2.782,2.782,0,0,1-.432.617c-.185.185-.37.339-.555.493a1.92,1.92,0,0,1-.524.308,1.089,1.089,0,0,1,.4.432,1.478,1.478,0,0,1,.216.617,1.534,1.534,0,0,1-.093.493,3.112,3.112,0,0,1-.216.463l-.093.185a7.3,7.3,0,0,1-.648,1.018,2.524,2.524,0,0,1-.833.678,4.14,4.14,0,0,1-1.233.4,10.313,10.313,0,0,1-1.819.123H103Zm.987,6.753h4.194a3.619,3.619,0,0,0,.339-.154c.093-.031.154-.093.247-.123a.283.283,0,0,0,.185-.123l.185-.278.031-.092a.261.261,0,0,0,.062-.185v-.247H108.4Zm.8-1.819,1.974-1.449h3.269a.381.381,0,0,1,.093-.062.819.819,0,0,1,.154-.185.817.817,0,0,0,.154-.185.282.282,0,0,0,.093-.154l.031-.092a.135.135,0,0,1-.031-.092,1.392,1.392,0,0,0-.216-.216c-.093-.092-.154-.154-.185-.154h-4.194Z" transform="translate(-71.239 -280.4)" fill="url(#linear-gradient-3)"/>
        <path id="Path_15277" data-name="Path 15277" d="M156.282,280.4h3.885c-.493,1.172-.863,2.066-1.11,2.714-.278.648-.463,1.141-.586,1.449s-.185.524-.216.617a.543.543,0,0,0-.031.185,2.072,2.072,0,0,0-.093.555,1.259,1.259,0,0,0,.339.925,1.31,1.31,0,0,0,.925.339h1.018a2.253,2.253,0,0,0,.925-.185,2.916,2.916,0,0,0,.74-.432,4.986,4.986,0,0,0,.586-.555c.154-.185.278-.37.4-.524l2.22-5.088h3.885l-1.85,4.225a14.268,14.268,0,0,1-1.048,2.066,5.906,5.906,0,0,1-1.2,1.511,5.04,5.04,0,0,1-1.573.925,6.133,6.133,0,0,1-2.1.308H159a16.966,16.966,0,0,1-2.374-.123,5.469,5.469,0,0,1-1.542-.432,1.85,1.85,0,0,1-.833-.771,2.637,2.637,0,0,1-.247-1.172,4.85,4.85,0,0,1,.092-.833c.062-.308.154-.586.247-.894s.216-.648.339-1.018Z" transform="translate(-106.512 -280.4)" fill="url(#linear-gradient-4)"/>
        <path id="Path_15278" data-name="Path 15278" d="M197.947,280.4h3.916l-2.929,6.753h6.476c.031,0-.062.092-.216.278-.185.185-.4.432-.648.678-.278.247-.524.524-.833.771a7.688,7.688,0,0,1-.709.586h-9Z" transform="translate(-134.178 -280.4)" fill="url(#linear-gradient)"/>
        <path id="Path_15279" data-name="Path 15279" d="M235.316,280.4h3.916l-2.929,6.753h6.506c.031,0-.062.092-.216.278-.185.185-.4.432-.648.678-.278.247-.524.524-.833.771a7.694,7.694,0,0,1-.709.586h-9Z" transform="translate(-160.045 -280.4)" fill="url(#linear-gradient-6)"/>
      </g>
      <g id="Group_3095" data-name="Group 3095" transform="translate(87.113)">
        <path id="Path_15280" data-name="Path 15280" d="M296.191,286.174a2.569,2.569,0,0,1-.123.463c-.062.154-.123.308-.185.432l-.092.247a7.358,7.358,0,0,1-.617,1.018,2.052,2.052,0,0,1-.771.678,3.618,3.618,0,0,1-1.233.4,11.552,11.552,0,0,1-1.974.123h-5.828c-.555,0-1.018-.031-1.388-.062a3.013,3.013,0,0,1-.894-.185.911.911,0,0,1-.463-.339.743.743,0,0,1-.123-.463,1.711,1.711,0,0,1,.092-.524c.062-.185.123-.432.216-.648l.093-.247a4.052,4.052,0,0,0,.277-.524c.123-.185.247-.37.37-.524a2.676,2.676,0,0,1,.678-.524,3.646,3.646,0,0,0,.555-.339.611.611,0,0,1-.339-.339,1.494,1.494,0,0,1-.092-.555,3.108,3.108,0,0,1,.092-.771,2.057,2.057,0,0,1,.278-.648l.123-.278a5.736,5.736,0,0,1,.4-.709,2.5,2.5,0,0,1,.709-.678,4.5,4.5,0,0,1,1.264-.493,9.268,9.268,0,0,1,2.066-.185h7.555c-.339.4-.678.8-1.048,1.172a11.031,11.031,0,0,1-1.233,1.141h-4.965a1.514,1.514,0,0,0-.37.092.6.6,0,0,0-.37.278l-1.141,2.683,2.744-1.974h9.313l-2.929,2.313h-.648Zm-5.242,1.048a2.867,2.867,0,0,0,.308-.154c.092-.031.154-.093.247-.123a.283.283,0,0,0,.185-.123l.093-.093.031-.092a1.276,1.276,0,0,0,.123-.278.788.788,0,0,0,.062-.339h-4.41l-.308.771a1.391,1.391,0,0,0,.216.216c.093.093.154.154.185.154h3.269Z" transform="translate(-282.5 -280.469)" fill="url(#linear-gradient-7)"/>
        <path id="Path_15281" data-name="Path 15281" d="M355.285,280.4h9.436a2.069,2.069,0,0,1,1.018.216,1.927,1.927,0,0,1,.648.555,2.1,2.1,0,0,1,.339.8,4.787,4.787,0,0,1,.092.956v.031a1.406,1.406,0,0,1-.185.678,2.785,2.785,0,0,1-.432.617c-.185.185-.37.339-.555.493a1.92,1.92,0,0,1-.524.308,1.089,1.089,0,0,1,.4.432,1.478,1.478,0,0,1,.216.617,1.533,1.533,0,0,1-.092.493,3.11,3.11,0,0,1-.216.463l-.092.185a7.3,7.3,0,0,1-.648,1.018,2.524,2.524,0,0,1-.833.678,4.139,4.139,0,0,1-1.233.4,10.313,10.313,0,0,1-1.819.123H351.4Zm.987,6.753h4.194a3.615,3.615,0,0,0,.339-.154c.092-.031.154-.093.247-.123a.283.283,0,0,0,.185-.123l.185-.278.031-.092a.261.261,0,0,0,.062-.185v-.247H356.8Zm.8-1.819,1.974-1.449h3.269a.38.38,0,0,1,.092-.062.819.819,0,0,1,.154-.185.818.818,0,0,0,.154-.185.282.282,0,0,0,.092-.154l.031-.092a.135.135,0,0,1-.031-.092,1.394,1.394,0,0,0-.216-.216c-.093-.092-.154-.154-.185-.154h-4.194Z" transform="translate(-330.154 -280.4)" fill="url(#linear-gradient-8)"/>
        <path id="Path_15282" data-name="Path 15282" d="M400.947,280.4h11.687a4.5,4.5,0,0,1-.463.617c-.216.247-.463.524-.709.771a6.947,6.947,0,0,1-.74.648,1.2,1.2,0,0,1-.524.278h-6.322L402.7,285.4l1.943-1.573H409.4l-2.929,2.313h-4.1l-.432,1.018H409.8c0,.031-.031.062-.092.154-.062.062-.093.154-.154.216s-.123.154-.185.216a.53.53,0,0,0-.092.123l-.493.493c-.216.185-.432.37-.617.524-.216.154-.4.308-.555.432s-.247.185-.247.185H397Z" transform="translate(-361.692 -280.4)" fill="url(#linear-gradient-9)"/>
        <path id="Path_15283" data-name="Path 15283" d="M452.109,289.466H448.47l-.432-1.943c-.031.062-.123.185-.278.4-.185.185-.37.4-.586.617a5.557,5.557,0,0,1-.648.586,4.56,4.56,0,0,1-.432.339h-8.7c.031-.123.031-.154.031-.123v-.062l7.4-7.863a1.558,1.558,0,0,1,.247-.278,4.6,4.6,0,0,1,.4-.339,2.48,2.48,0,0,1,.432-.278.65.65,0,0,1,.339-.123H449.7a.44.44,0,0,1,.37.185,1.161,1.161,0,0,1,.277.463,3.287,3.287,0,0,1,.216.586c.062.185.123.37.154.493Zm-8.233-2.436v.185h4.163l-.709-4.009Z" transform="translate(-389.635 -280.4)" fill="url(#linear-gradient-10)"/>
        <path id="Path_15284" data-name="Path 15284" d="M488.2,289.466l3.947-9.066h9.158a2.408,2.408,0,0,1,1.141.247,1.964,1.964,0,0,1,.678.648,2.963,2.963,0,0,1,.339.863,4.337,4.337,0,0,1,.092.863,2.122,2.122,0,0,1-.493,1.449,3.6,3.6,0,0,1-1.3.894,9.085,9.085,0,0,1-1.7.493q-.925.139-1.758.185l4.009,3.423h-4.379l-4.255-3.238-.216.123-1.357,3.114Zm11.379-6.26v-.185a.445.445,0,0,0-.062-.216c-.031-.062-.154-.093-.308-.093h-4.132L493.9,285.4l1.819-1.511h3.269a.437.437,0,0,0,.432-.216A.886.886,0,0,0,499.579,283.206Z" transform="translate(-424.77 -280.4)" fill="url(#linear-gradient-11)"/>
      </g>
    </g>
    <g id="Group_3097" data-name="Group 3097" transform="translate(35.444 0.2)">
      <path id="Path_15285" data-name="Path 15285" d="M160.814,38.425V37.037c0-.74,0-1.418-.031-2,0-.709,0-.709-.678-.74a19.345,19.345,0,0,1-6.445-1.418,6.009,6.009,0,0,0-3.67-.37c-2.282.463-4.564.8-6.846,1.233-.339.062-.648.123-.987.154a10.489,10.489,0,0,1-1.388.093v-.031a62.765,62.765,0,0,1-11.44-2.714,12.216,12.216,0,0,1-2.652-.894h0a14.205,14.205,0,0,1-2.621-1.6c-2.991-1.943-3.855-3.855-4.07-5.119-.185-.432-.339-.894-.493-1.326a11,11,0,0,1-.4-3.515,20.8,20.8,0,0,1-.308-5.982c-.216.278-.432.524-.648.833a18.509,18.509,0,0,0-1.881,3.022c-.123.216-.216.432-.339.678a19.983,19.983,0,0,0,1.326,13.6c0,.031.031.031.031.062a23.612,23.612,0,0,0,3.207,4.718c.154.185.308.37.463.524l.278.278a3.376,3.376,0,0,1,.308.339l.216.216a1.616,1.616,0,0,0,.339.308,1.762,1.762,0,0,0,.247.216c.123.123.247.216.37.339a.541.541,0,0,0,.154.123c.185.154.339.308.524.463,0,.031.031.031.062.062a4.146,4.146,0,0,0,.432.339c.247.185.493.4.771.586.247.154.463.339.709.493h0a50.314,50.314,0,0,0,5.088,2.621c1.326.586,2.529,1.018,3.515,1.357a30.88,30.88,0,0,1,5.52,2.559,11.922,11.922,0,0,0,2.344,1.2,3.8,3.8,0,0,1,1.511.493,4.029,4.029,0,0,1,1.141,4.44s-.555,2.405,2.313,7.894l.555,1.11c.247.432.493.833.771,1.264a16.383,16.383,0,0,1,1.912,3.053c0,.031.031.062.062.123a28.508,28.508,0,0,1,1.7,6.414c.339,2.159.648,4.348.987,6.506a2,2,0,0,1-.308,1.511c-.185.247-.247.555-.432.8-.216.308-.092.524.123.74a10.067,10.067,0,0,0,3.577,2.313c.4.154.833.247,1.233.37.031,0,.062.031.092.031.031-.031.031-.062.062-.093a5.22,5.22,0,0,1-2-4.533,3.576,3.576,0,0,1,2.189,1.388,5.535,5.535,0,0,1,1.048,3.207c.031.833.524,1.141,1.141,1.48a3.706,3.706,0,0,0,1.819.278C161.184,83.323,160.968,52.425,160.814,38.425Zm-5.427,29.819a6.212,6.212,0,0,1-.308-1.079c-.37-1.542-.8-3.053-1.11-4.595a1.316,1.316,0,0,0-1.2-1.172,12.117,12.117,0,0,1-5.581-2.96l-.031-.031a15.2,15.2,0,0,1-1.2-1.233,15.141,15.141,0,0,1-.833-4.132,4.643,4.643,0,0,1,.524.308c.278.154.586.339.863.493a35.015,35.015,0,0,1,8.11,6.661,1.7,1.7,0,0,1,.37.833c.154,1.758.308,3.515.432,5.273C155.418,67.134,155.387,67.689,155.387,68.244Z" transform="translate(-115.19 -8.915)" fill="url(#linear-gradient-12)"/>
      <path id="Path_15286" data-name="Path 15286" d="M212.5,163.6" transform="translate(-182.417 -113.214)" fill="#fff"/>
      <path id="Path_15287" data-name="Path 15287" d="M228.421,194.266c-.432-.123-.833-.216-1.233-.37a10.5,10.5,0,0,1-3.577-2.313c-.216-.216-.339-.432-.123-.74.185-.247.247-.555.432-.8a2,2,0,0,0,.308-1.511c-.339-2.159-.648-4.348-.987-6.506a31.718,31.718,0,0,0-1.758-6.506,16.383,16.383,0,0,0-1.912-3.053c-.278-.4-.524-.833-.771-1.264,2.035,2.621,3.67,4.379,4.965,6.476a18.042,18.042,0,0,1,2.344,9.189c-.123,2.128-1.079,3.3-.617,4.533C225.862,192.323,227.619,193.68,228.421,194.266Z" transform="translate(-186.774 -118.47)" fill="url(#linear-gradient-13)"/>
      <path id="Path_15288" data-name="Path 15288" d="M147.431,33.688a23.91,23.91,0,0,1-10.238,1.634h0a24.657,24.657,0,0,1-7.123-1.48,23.394,23.394,0,0,1-5.088-2.621h0c-.247-.154-.463-.339-.709-.493-.247-.185-.493-.37-.771-.586a5.273,5.273,0,0,1-.432-.339c-.031,0-.031-.031-.062-.062-.185-.154-.339-.278-.524-.463-.062-.031-.093-.093-.154-.123a3.7,3.7,0,0,1-.37-.339c-.093-.062-.154-.154-.247-.216-.123-.093-.216-.216-.339-.308a1.426,1.426,0,0,1-.216-.216c-.093-.123-.216-.216-.308-.339l-.278-.278c-.154-.185-.308-.339-.463-.524a24.987,24.987,0,0,1-3.207-4.718c0-.031-.031-.031-.031-.062a20.179,20.179,0,0,1-1.326-13.6A27.006,27.006,0,0,1,119.031.2l-.093.37a21.726,21.726,0,0,0-.524,3.485,20.737,20.737,0,0,0,.308,5.982c.031.216.093.4.123.586a23.529,23.529,0,0,0,.278,2.929,25.249,25.249,0,0,0,.771,3.361,24.118,24.118,0,0,0,3.885,7.555c.308.4.617.771.925,1.141a23.92,23.92,0,0,0,1.943,2A24.514,24.514,0,0,0,147.431,33.688Z" transform="translate(-114.943 -0.2)" fill="url(#linear-gradient-14)"/>
      <path id="Path_15289" data-name="Path 15289" d="M315.284,5.874h0A25.438,25.438,0,0,0,312.571.2a29.973,29.973,0,0,1,.586,3.454,19.413,19.413,0,0,1-3.084,13.105c-.031.031-.031.062-.062.093s-.062.062-.092.062c-2.652,3.947-7.247,6.383-11.779,7.462a35.93,35.93,0,0,1-5.982.894c-.093.031-.216.031-.308.062a17.719,17.719,0,0,1-3.115-.154c-.092,0-.216-.031-.308-.031h0a9.441,9.441,0,0,1-.987-.154c-1.2-.247-2.436-.432-3.639-.648h0c-1.079-.185-2.128-.37-3.207-.586a6.476,6.476,0,0,0-3.67.37c-.123.062-.247.093-.4.154a2.713,2.713,0,0,1-.463.154c-.062.031-.154.062-.216.093s-.123.031-.185.062c-.123.031-.247.093-.37.123-.185.062-.4.123-.586.185l-.37.093a1.1,1.1,0,0,1-.308.062c-.093.031-.154.031-.247.062-.123.031-.247.062-.4.093-.216.031-.432.093-.648.123-.093.031-.216.031-.308.062-.247.031-.524.062-.771.093-.123,0-.247.031-.37.031-.154,0-.277.031-.4.031s-.247.031-.37.031c-.216,0-.648.031-1.11.031V77.753l2.313-2.929,16.621-21.185-8.11-5.8a35.6,35.6,0,0,1,4.749-3.207c.216-.123.432-.247.617-.37.216-.123.432-.216.617-.339a4.057,4.057,0,0,1,1.141-4.44l.277-.185a5.561,5.561,0,0,1,1.233-.308c.956-.216,4.1-2.313,6.476-3.7a23.266,23.266,0,0,0,6.291-1.418,24.088,24.088,0,0,0,7.524-4.471,20.465,20.465,0,0,0,2.436-2.467,23.725,23.725,0,0,0,4.163-6.876A22.087,22.087,0,0,0,315.284,5.874ZM275.382,45.9V48.3l5.551,6.414L274.55,61.9V34.089l4.255.987,2.128,4.595Z" transform="translate(-221.771 -0.2)" fill="url(#linear-gradient-15)"/>
      <path id="Path_15290" data-name="Path 15290" d="M393.038,14.7l-2.313-3.3a19.414,19.414,0,0,1-3.084,13.105c-.031.031-.031.062-.062.093a14.567,14.567,0,0,1-5.982,5.458s-.4,5.427,1.172,4.255a20.472,20.472,0,0,0,3.7-3.885c.37-.493,1.6-3.145,2.96-6.106.771-1.7,1.573-3.515,2.251-5.057.617-1.418,1.141-2.59,1.449-3.3A8.411,8.411,0,0,0,393.038,14.7Z" transform="translate(-299.339 -7.946)" fill="url(#linear-gradient-16)"/>
      <path id="Path_15291" data-name="Path 15291" d="M315.593,8.248c-.031-.432-.062-.863-.123-1.3-.062-.37-.092-.709-.185-1.079h0A26.31,26.31,0,0,0,312.571.2a29.973,29.973,0,0,1,.586,3.454,19.432,19.432,0,0,1-2.96,12.92c-.031.031-.062.093-.092.123,0,.031-.031.031-.031.062-.031.031-.031.062-.062.093l-.092.093c-2.652,3.947-7.247,6.383-11.779,7.462a35.93,35.93,0,0,1-5.982.894c-.093.031-.216.031-.308.062a17.719,17.719,0,0,1-3.115-.154c-.092,0-.216-.031-.308-.031h0a9.442,9.442,0,0,1-.987-.154c-1.2-.247-2.436-.432-3.639-.648h0c-1.079-.185-2.128-.37-3.207-.586a6.476,6.476,0,0,0-3.67.37c-.123.062-.247.093-.4.154a2.713,2.713,0,0,1-.463.154c-.062.031-.154.062-.216.093s-.123.031-.185.062c-.123.031-.247.093-.37.123-.185.062-.4.123-.586.185l-.37.093a1.1,1.1,0,0,1-.308.062c-.093.031-.154.031-.247.062-.123.031-.247.062-.4.093-.216.031-.432.093-.648.123-.093.031-.216.031-.308.062-.247.031-.524.062-.771.093-.123,0-.247.031-.37.031-.154,0-.277.031-.4.031s-.247.031-.37.031c-.216,0-.648.031-1.11.031v4.1a3.19,3.19,0,0,0,2.313-.493h.031c3.7-1.943,9.9-2.714,13.105-1.449a9.5,9.5,0,0,0,1.819.493,37.46,37.46,0,0,0,6.044.709c4.194.154,9.343-.339,13.691-2.652a16.572,16.572,0,0,0,8.48-10.762l.37-1.48A25.9,25.9,0,0,0,315.593,8.248Z" transform="translate(-221.771 -0.2)" fill="url(#linear-gradient-17)"/>
      <path id="Path_15292" data-name="Path 15292" d="M166.364,30.471a5.477,5.477,0,0,1-3.392-.586c-2.344-1.264-7.277-2.436-11.07-1.172-2.313.771-11.533,2.128-18.872-1.388a18.594,18.594,0,0,1-2.159-1.233c-.4-.278-.8-.555-1.172-.863-3.207-2.559-5.612-6.506-6.229-12.458,0-.123-.031-.247-.031-.37a27.008,27.008,0,0,1,.216-6.784.9.9,0,0,1,.062-.278,22.081,22.081,0,0,1,1.141-4.04,21.727,21.727,0,0,0-.524,3.485,20.737,20.737,0,0,0,.308,5.982c.031.216.093.4.123.586a18.98,18.98,0,0,0,2.991,6.6,14.966,14.966,0,0,0,4.04,4.1,1.941,1.941,0,0,1,.339.247c.031.031.031.031.062.031h0a12.216,12.216,0,0,0,2.652.894,62.765,62.765,0,0,0,11.44,2.714v.031c.463,0,.925-.062,1.388-.093a9.441,9.441,0,0,0,.987-.154c2.282-.432,4.595-.771,6.846-1.233a6.476,6.476,0,0,1,3.67.37,20.136,20.136,0,0,0,6.445,1.418c.678.031.678.031.678.74,0,.617,0,1.264.031,2C166.364,29.515,166.364,29.978,166.364,30.471Z" transform="translate(-120.739 -0.961)" fill="url(#linear-gradient-18)"/>
      <path id="Path_15293" data-name="Path 15293" d="M269.2,165.453l15.7-23.436s-7.123-6.506-7.277-6.661,2.282-3.392,4.81-5.766a11,11,0,0,1,5.057-2.59,2.159,2.159,0,0,0-.278.185,4.029,4.029,0,0,0-1.141,4.44c-.216.123-.432.216-.617.339-.216.123-.432.247-.617.37a35.6,35.6,0,0,0-4.749,3.207l8.11,5.828Z" transform="translate(-221.633 -87.9)" fill="url(#linear-gradient-19)"/>
      <path id="Path_15294" data-name="Path 15294" d="M171.28,125.673l-.74-.031c-.031-.031-.031-.062-.062-.123a16.384,16.384,0,0,0-1.912-3.053c-.278-.4-.524-.833-.771-1.264-.216-.37-.37-.74-.555-1.11-2.868-5.489-2.313-7.894-2.313-7.894a4.057,4.057,0,0,0-1.141-4.44,3.371,3.371,0,0,0-1.511-.493,11.923,11.923,0,0,1-2.344-1.2,29.916,29.916,0,0,0-5.52-2.559c-.987-.339-2.189-.8-3.515-1.357a42.247,42.247,0,0,1-5.088-2.621h0c-.247-.154-.463-.339-.709-.493l.062-.031s10.238,4.44,15.017,5.057,7.863,1.2,7.154,5a18.926,18.926,0,0,0-.247,4.379,25.373,25.373,0,0,0,.648,4.564A20.161,20.161,0,0,0,171.28,125.673Z" transform="translate(-135.801 -68.534)" fill="url(#linear-gradient-20)"/>
      <path id="Path_15295" data-name="Path 15295" d="M271.513,83.973v47.7l-2.313,2.929V82.462c.432-.031.894-.031,1.11-.031a1.5,1.5,0,0,0,.37-.031Z" transform="translate(-221.633 -57.053)" fill="url(#linear-gradient-21)"/>
      <path id="Path_15296" data-name="Path 15296" d="M117.442,22.865c-.123-.216-.216-.432-.339-.648,0-.031-.031-.031-.031-.062a20.179,20.179,0,0,1-1.326-13.6A27.006,27.006,0,0,1,119.231.2l-.093.37a21.726,21.726,0,0,0-.524,3.485,20.737,20.737,0,0,0,.308,5.982c.031.216.092.4.123.617a18.72,18.72,0,0,0,2.991,6.6,17.657,17.657,0,0,0,4.04,4.1,1.94,1.94,0,0,1,.339.247c.031,0,.031.031.062.031h0" transform="translate(-115.081 -0.2)" fill="none"/>
      <path id="Path_15297" data-name="Path 15297" d="M402.3,16.3c3.053-4.81,3.484-10.639,2.189-16.1" transform="translate(-313.69 -0.2)" fill="none"/>
      <path id="Path_15298" data-name="Path 15298" d="M385.8,59.395a16.408,16.408,0,0,0,4.625-4.595" transform="translate(-302.278 -37.963)" fill="none"/>
      <path id="Path_15299" data-name="Path 15299" d="M409.4.2h0a26.31,26.31,0,0,1,2.714,5.674h0a22.3,22.3,0,0,1,.463,14.185,18.679,18.679,0,0,1-1.326,3.053" transform="translate(-318.6 -0.2)" fill="none"/>
    </g>
  </g>
</svg>
